<svg width="326" height="60" viewBox="0 0 326 60" fill="none" xmlns="http://www.w3.org/2000/svg">
<mask id="path-1-outside-1_1_21" maskUnits="userSpaceOnUse" x="1" y="0" width="249" height="60" fill="black">
<rect fill="white" x="1" width="249" height="60"/>
<path d="M14.9229 25.3594H47.9121V4.18555H57.3066V56H47.9121V34.8262H14.9229V56H5.52832V4.18555H14.9229V25.3594ZM119.166 56H109.771V43.2812H76.7461V56H67.3516V30.0928C67.3516 26.3109 68.002 22.8301 69.3027 19.6504C70.6035 16.4707 72.4102 13.7367 74.7227 11.4482C77.0352 9.15983 79.7692 7.37728 82.9248 6.10059C86.0804 4.82389 89.5251 4.18555 93.2588 4.18555H114.433C115.083 4.18555 115.697 4.30599 116.275 4.54688C116.854 4.78776 117.359 5.125 117.793 5.55859C118.227 5.99219 118.564 6.49805 118.805 7.07617C119.046 7.6543 119.166 8.26855 119.166 8.91895V56ZM76.7461 33.8867H109.771V13.5801H93.2588C92.9697 13.5801 92.3555 13.6283 91.416 13.7246C90.5007 13.7969 89.4287 14.0016 88.2002 14.3389C86.9958 14.6761 85.7191 15.194 84.3701 15.8926C83.0212 16.5911 81.7806 17.5547 80.6484 18.7832C79.5163 20.0117 78.5768 21.5534 77.8301 23.4082C77.1074 25.2389 76.7461 27.4671 76.7461 30.0928V33.8867ZM176.509 56H142.616C141.749 56 140.81 55.9036 139.798 55.7109C138.81 55.4941 137.823 55.1689 136.835 54.7354C135.871 54.3018 134.944 53.7477 134.053 53.0732C133.161 52.3747 132.367 51.5436 131.668 50.5801C130.993 49.5924 130.451 48.4603 130.042 47.1836C129.632 45.8828 129.428 44.4255 129.428 42.8115V17.374C129.428 16.5068 129.524 15.5794 129.717 14.5918C129.934 13.5801 130.259 12.5924 130.692 11.6289C131.126 10.6413 131.692 9.70182 132.391 8.81055C133.089 7.91927 133.92 7.13639 134.884 6.46191C135.871 5.76335 137.004 5.20931 138.28 4.7998C139.557 4.3903 141.002 4.18555 142.616 4.18555H176.509V13.5801H142.616C141.388 13.5801 140.448 13.9053 139.798 14.5557C139.147 15.2061 138.822 16.1696 138.822 17.4463V42.8115C138.822 44.016 139.147 44.9554 139.798 45.6299C140.472 46.2803 141.412 46.6055 142.616 46.6055H176.509V56ZM239.705 56H226.372L205.234 34.8262H198.622V25.3594H205.234L226.372 4.18555H239.705L213.075 30.0928L239.705 56ZM194.864 56H185.47V4.18555H194.864V56Z"/>
</mask>
<path d="M14.9229 25.3594H47.9121V4.18555H57.3066V56H47.9121V34.8262H14.9229V56H5.52832V4.18555H14.9229V25.3594ZM119.166 56H109.771V43.2812H76.7461V56H67.3516V30.0928C67.3516 26.3109 68.002 22.8301 69.3027 19.6504C70.6035 16.4707 72.4102 13.7367 74.7227 11.4482C77.0352 9.15983 79.7692 7.37728 82.9248 6.10059C86.0804 4.82389 89.5251 4.18555 93.2588 4.18555H114.433C115.083 4.18555 115.697 4.30599 116.275 4.54688C116.854 4.78776 117.359 5.125 117.793 5.55859C118.227 5.99219 118.564 6.49805 118.805 7.07617C119.046 7.6543 119.166 8.26855 119.166 8.91895V56ZM76.7461 33.8867H109.771V13.5801H93.2588C92.9697 13.5801 92.3555 13.6283 91.416 13.7246C90.5007 13.7969 89.4287 14.0016 88.2002 14.3389C86.9958 14.6761 85.7191 15.194 84.3701 15.8926C83.0212 16.5911 81.7806 17.5547 80.6484 18.7832C79.5163 20.0117 78.5768 21.5534 77.8301 23.4082C77.1074 25.2389 76.7461 27.4671 76.7461 30.0928V33.8867ZM176.509 56H142.616C141.749 56 140.81 55.9036 139.798 55.7109C138.81 55.4941 137.823 55.1689 136.835 54.7354C135.871 54.3018 134.944 53.7477 134.053 53.0732C133.161 52.3747 132.367 51.5436 131.668 50.5801C130.993 49.5924 130.451 48.4603 130.042 47.1836C129.632 45.8828 129.428 44.4255 129.428 42.8115V17.374C129.428 16.5068 129.524 15.5794 129.717 14.5918C129.934 13.5801 130.259 12.5924 130.692 11.6289C131.126 10.6413 131.692 9.70182 132.391 8.81055C133.089 7.91927 133.92 7.13639 134.884 6.46191C135.871 5.76335 137.004 5.20931 138.28 4.7998C139.557 4.3903 141.002 4.18555 142.616 4.18555H176.509V13.5801H142.616C141.388 13.5801 140.448 13.9053 139.798 14.5557C139.147 15.2061 138.822 16.1696 138.822 17.4463V42.8115C138.822 44.016 139.147 44.9554 139.798 45.6299C140.472 46.2803 141.412 46.6055 142.616 46.6055H176.509V56ZM239.705 56H226.372L205.234 34.8262H198.622V25.3594H205.234L226.372 4.18555H239.705L213.075 30.0928L239.705 56ZM194.864 56H185.47V4.18555H194.864V56Z" fill="#FF6F61"/>
<path d="M14.9229 25.3594H10.9229V29.3594H14.9229V25.3594ZM47.9121 25.3594V29.3594H51.9121V25.3594H47.9121ZM47.9121 4.18555V0.185547H43.9121V4.18555H47.9121ZM57.3066 4.18555H61.3066V0.185547H57.3066V4.18555ZM57.3066 56V60H61.3066V56H57.3066ZM47.9121 56H43.9121V60H47.9121V56ZM47.9121 34.8262H51.9121V30.8262H47.9121V34.8262ZM14.9229 34.8262V30.8262H10.9229V34.8262H14.9229ZM14.9229 56V60H18.9229V56H14.9229ZM5.52832 56H1.52832V60H5.52832V56ZM5.52832 4.18555V0.185547H1.52832V4.18555H5.52832ZM14.9229 4.18555H18.9229V0.185547H14.9229V4.18555ZM14.9229 29.3594H47.9121V21.3594H14.9229V29.3594ZM51.9121 25.3594V4.18555H43.9121V25.3594H51.9121ZM47.9121 8.18555H57.3066V0.185547H47.9121V8.18555ZM53.3066 4.18555V56H61.3066V4.18555H53.3066ZM57.3066 52H47.9121V60H57.3066V52ZM51.9121 56V34.8262H43.9121V56H51.9121ZM47.9121 30.8262H14.9229V38.8262H47.9121V30.8262ZM10.9229 34.8262V56H18.9229V34.8262H10.9229ZM14.9229 52H5.52832V60H14.9229V52ZM9.52832 56V4.18555H1.52832V56H9.52832ZM5.52832 8.18555H14.9229V0.185547H5.52832V8.18555ZM10.9229 4.18555V25.3594H18.9229V4.18555H10.9229ZM119.166 56V60H123.166V56H119.166ZM109.771 56H105.771V60H109.771V56ZM109.771 43.2812H113.771V39.2812H109.771V43.2812ZM76.7461 43.2812V39.2812H72.7461V43.2812H76.7461ZM76.7461 56V60H80.7461V56H76.7461ZM67.3516 56H63.3516V60H67.3516V56ZM82.9248 6.10059L81.4246 2.39256L82.9248 6.10059ZM76.7461 33.8867H72.7461V37.8867H76.7461V33.8867ZM109.771 33.8867V37.8867H113.771V33.8867H109.771ZM109.771 13.5801H113.771V9.58008H109.771V13.5801ZM91.416 13.7246L91.7308 17.7122L91.7775 17.7085L91.8241 17.7037L91.416 13.7246ZM88.2002 14.3389L87.1413 10.4816L87.1315 10.4843L87.1217 10.487L88.2002 14.3389ZM80.6484 18.7832L77.707 16.0725L80.6484 18.7832ZM77.8301 23.4082L74.1195 21.9143L74.1144 21.9269L74.1095 21.9395L77.8301 23.4082ZM119.166 52H109.771V60H119.166V52ZM113.771 56V43.2812H105.771V56H113.771ZM109.771 39.2812H76.7461V47.2812H109.771V39.2812ZM72.7461 43.2812V56H80.7461V43.2812H72.7461ZM76.7461 52H67.3516V60H76.7461V52ZM71.3516 56V30.0928H63.3516V56H71.3516ZM71.3516 30.0928C71.3516 26.7777 71.9198 23.8175 73.0049 21.1649L65.6005 18.1359C64.0842 21.8426 63.3516 25.844 63.3516 30.0928H71.3516ZM73.0049 21.1649C74.1135 18.4551 75.6275 16.1803 77.5362 14.2914L71.9091 8.60505C69.1928 11.293 67.0935 14.4864 65.6005 18.1359L73.0049 21.1649ZM77.5362 14.2914C79.4551 12.3925 81.737 10.8961 84.425 9.80861L81.4246 2.39256C77.8014 3.85842 74.6152 5.92713 71.9091 8.60505L77.5362 14.2914ZM84.425 9.80861C87.0597 8.74265 89.9893 8.18555 93.2588 8.18555V0.185547C89.0608 0.185547 85.1011 0.905136 81.4246 2.39256L84.425 9.80861ZM93.2588 8.18555H114.433V0.185547H93.2588V8.18555ZM114.433 8.18555C114.576 8.18555 114.665 8.20923 114.737 8.23918L117.814 0.854567C116.729 0.402745 115.59 0.185547 114.433 0.185547V8.18555ZM114.737 8.23918C114.843 8.28351 114.908 8.33087 114.965 8.38702L120.621 2.73017C119.81 1.91913 118.864 1.29201 117.814 0.854567L114.737 8.23918ZM114.965 8.38702C115.021 8.44317 115.068 8.50823 115.112 8.61463L122.497 5.53771C122.06 4.48786 121.432 3.5412 120.621 2.73017L114.965 8.38702ZM115.112 8.61463C115.142 8.68651 115.166 8.77594 115.166 8.91895H123.166C123.166 7.76117 122.949 6.62208 122.497 5.53771L115.112 8.61463ZM115.166 8.91895V56H123.166V8.91895H115.166ZM76.7461 37.8867H109.771V29.8867H76.7461V37.8867ZM113.771 33.8867V13.5801H105.771V33.8867H113.771ZM109.771 9.58008H93.2588V17.5801H109.771V9.58008ZM93.2588 9.58008C92.7269 9.58008 91.9003 9.65395 91.0079 9.74548L91.8241 17.7037C92.2769 17.6573 92.6307 17.6246 92.8941 17.604C93.186 17.5811 93.2805 17.5801 93.2588 17.5801V9.58008ZM91.1012 9.73702C89.8587 9.83511 88.5272 10.1011 87.1413 10.4816L89.2591 18.1962C90.3302 17.9021 91.1426 17.7586 91.7308 17.7122L91.1012 9.73702ZM87.1217 10.487C85.6051 10.9116 84.0727 11.5421 82.5307 12.3406L86.2095 19.4446C87.3655 18.8459 88.3864 18.4406 89.2787 18.1907L87.1217 10.487ZM82.5307 12.3406C80.729 13.2736 79.1233 14.5356 77.707 16.0725L83.5899 21.4939C84.4379 20.5738 85.3133 19.9087 86.2095 19.4446L82.5307 12.3406ZM77.707 16.0725C76.1895 17.7192 75.0123 19.6968 74.1195 21.9143L81.5406 24.9021C82.1414 23.4099 82.8431 22.3043 83.5899 21.4939L77.707 16.0725ZM74.1095 21.9395C73.1518 24.3655 72.7461 27.1227 72.7461 30.0928H80.7461C80.7461 27.8116 81.063 26.1124 81.5507 24.8769L74.1095 21.9395ZM72.7461 30.0928V33.8867H80.7461V30.0928H72.7461ZM176.509 56V60H180.509V56H176.509ZM139.798 55.7109L138.94 59.6179L138.995 59.6299L139.049 59.6403L139.798 55.7109ZM136.835 54.7354L135.193 58.383L135.21 58.3906L135.227 58.3979L136.835 54.7354ZM134.053 53.0732L131.585 56.2215L131.612 56.2424L131.639 56.2629L134.053 53.0732ZM131.668 50.5801L128.365 52.8359L128.396 52.8824L128.43 52.9279L131.668 50.5801ZM130.042 47.1836L126.227 48.3847L126.23 48.395L126.233 48.4053L130.042 47.1836ZM129.717 14.5918L125.806 13.7537L125.798 13.7896L125.791 13.8258L129.717 14.5918ZM130.692 11.6289L134.34 13.2704L134.348 13.2536L134.355 13.2369L130.692 11.6289ZM134.884 6.46191L137.178 9.73884L137.186 9.73323L137.194 9.72758L134.884 6.46191ZM176.509 4.18555H180.509V0.185547H176.509V4.18555ZM176.509 13.5801V17.5801H180.509V13.5801H176.509ZM139.798 45.6299L136.918 48.4064L136.969 48.4588L137.021 48.5093L139.798 45.6299ZM176.509 46.6055H180.509V42.6055H176.509V46.6055ZM176.509 52H142.616V60H176.509V52ZM142.616 52C142.042 52 141.356 51.9358 140.546 51.7816L139.049 59.6403C140.263 59.8715 141.456 60 142.616 60V52ZM140.655 51.804C139.942 51.6473 139.205 51.4074 138.443 51.0728L135.227 58.3979C136.44 58.9305 137.679 59.341 138.94 59.6179L140.655 51.804ZM138.476 51.0877C137.802 50.7842 137.132 50.3873 136.467 49.8836L131.639 56.2629C132.756 57.1081 133.941 57.8193 135.193 58.383L138.476 51.0877ZM136.52 49.925C135.937 49.4675 135.398 48.9098 134.906 48.2322L128.43 52.9279C129.335 54.1775 130.386 55.2818 131.585 56.2215L136.52 49.925ZM134.971 48.3242C134.539 47.691 134.157 46.9151 133.851 45.9619L126.233 48.4053C126.746 50.0055 127.448 51.4939 128.365 52.8359L134.971 48.3242ZM133.857 45.9824C133.59 45.134 133.428 44.0906 133.428 42.8115H125.428C125.428 44.7603 125.675 46.6316 126.227 48.3847L133.857 45.9824ZM133.428 42.8115V17.374H125.428V42.8115H133.428ZM133.428 17.374C133.428 16.801 133.492 16.1322 133.643 15.3578L125.791 13.8258C125.557 15.0266 125.428 16.2127 125.428 17.374H133.428ZM133.628 15.4299C133.784 14.7003 134.02 13.9817 134.34 13.2704L127.045 9.98745C126.498 11.2032 126.083 12.4598 125.806 13.7537L133.628 15.4299ZM134.355 13.2369C134.647 12.5711 135.037 11.9187 135.539 11.2781L129.242 6.34302C128.347 7.48498 127.605 8.71144 127.03 10.0209L134.355 13.2369ZM135.539 11.2781C135.985 10.7091 136.525 10.1959 137.178 9.73884L132.59 3.18499C131.316 4.07687 130.194 5.12945 129.242 6.34302L135.539 11.2781ZM137.194 9.72758C137.814 9.28847 138.572 8.90699 139.502 8.60867L137.059 0.990943C135.435 1.51163 133.928 2.23822 132.574 3.19625L137.194 9.72758ZM139.502 8.60867C140.313 8.34856 141.335 8.18555 142.616 8.18555V0.185547C140.669 0.185547 138.801 0.432039 137.059 0.990943L139.502 8.60867ZM142.616 8.18555H176.509V0.185547H142.616V8.18555ZM172.509 4.18555V13.5801H180.509V4.18555H172.509ZM176.509 9.58008H142.616V17.5801H176.509V9.58008ZM142.616 9.58008C140.694 9.58008 138.595 10.1016 136.969 11.7272L142.626 17.3841C142.564 17.4464 142.497 17.4983 142.432 17.5381C142.368 17.5774 142.32 17.5966 142.299 17.6039C142.262 17.6167 142.346 17.5801 142.616 17.5801V9.58008ZM136.969 11.7272C135.317 13.3796 134.822 15.5278 134.822 17.4463H142.822C142.822 17.2955 142.832 17.1896 142.842 17.1221C142.851 17.0551 142.86 17.0329 142.856 17.0452C142.852 17.0589 142.834 17.1053 142.794 17.1714C142.753 17.2388 142.698 17.3128 142.626 17.3841L136.969 11.7272ZM134.822 17.4463V42.8115H142.822V17.4463H134.822ZM134.822 42.8115C134.822 44.744 135.361 46.791 136.918 48.4064L142.677 42.8533C142.723 42.9008 142.763 42.9532 142.794 43.0051C142.825 43.0564 142.84 43.0948 142.846 43.111C142.856 43.1404 142.822 43.0595 142.822 42.8115H134.822ZM137.021 48.5093C138.637 50.067 140.684 50.6055 142.616 50.6055V42.6055C142.368 42.6055 142.287 42.5715 142.317 42.5816C142.333 42.5872 142.371 42.6025 142.423 42.6335C142.475 42.6649 142.527 42.7047 142.574 42.7505L137.021 48.5093ZM142.616 50.6055H176.509V42.6055H142.616V50.6055ZM172.509 46.6055V56H180.509V46.6055H172.509ZM239.705 56V60H249.553L242.494 53.1329L239.705 56ZM226.372 56L223.541 58.826L224.713 60H226.372V56ZM205.234 34.8262L208.065 32.0002L206.893 30.8262H205.234V34.8262ZM198.622 34.8262H194.622V38.8262H198.622V34.8262ZM198.622 25.3594V21.3594H194.622V25.3594H198.622ZM205.234 25.3594V29.3594H206.893L208.065 28.1854L205.234 25.3594ZM226.372 4.18555V0.185547H224.713L223.541 1.35954L226.372 4.18555ZM239.705 4.18555L242.494 7.05261L249.553 0.185547H239.705V4.18555ZM213.075 30.0928L210.286 27.2257L207.339 30.0928L210.286 32.9598L213.075 30.0928ZM194.864 56V60H198.864V56H194.864ZM185.47 56H181.47V60H185.47V56ZM185.47 4.18555V0.185547H181.47V4.18555H185.47ZM194.864 4.18555H198.864V0.185547H194.864V4.18555ZM239.705 52H226.372V60H239.705V52ZM229.203 53.174L208.065 32.0002L202.404 37.6522L223.541 58.826L229.203 53.174ZM205.234 30.8262H198.622V38.8262H205.234V30.8262ZM202.622 34.8262V25.3594H194.622V34.8262H202.622ZM198.622 29.3594H205.234V21.3594H198.622V29.3594ZM208.065 28.1854L229.203 7.01156L223.541 1.35954L202.404 22.5334L208.065 28.1854ZM226.372 8.18555H239.705V0.185547H226.372V8.18555ZM236.916 1.31849L210.286 27.2257L215.864 32.9598L242.494 7.05261L236.916 1.31849ZM210.286 32.9598L236.916 58.8671L242.494 53.1329L215.864 27.2257L210.286 32.9598ZM194.864 52H185.47V60H194.864V52ZM189.47 56V4.18555H181.47V56H189.47ZM185.47 8.18555H194.864V0.185547H185.47V8.18555ZM190.864 4.18555V56H198.864V4.18555H190.864Z" fill="#4B4B4B" mask="url(#path-1-outside-1_1_21)"/>
<rect x="306" y="20" width="20" height="20" fill="#FF6F61"/>
<rect x="286" y="40" width="20" height="20" fill="#61FFDA"/>
<rect x="286" width="20" height="20" fill="#FFC361"/>
<rect x="286" y="20" width="20" height="20" fill="black"/>
<rect width="20" height="20" transform="matrix(1 0 0 -1 266 40)" fill="#B17AFF"/>
</svg>