<svg width="125" height="60" viewBox="0 0 125 60" fill="none" xmlns="http://www.w3.org/2000/svg">
<mask id="path-1-outside-1_1_31" maskUnits="userSpaceOnUse" x="1" y="0" width="61" height="60" fill="black">
<rect fill="white" x="1" width="61" height="60"/>
<path d="M14.9229 25.3594H47.9121V4.18555H57.3066V56H47.9121V34.8262H14.9229V56H5.52832V4.18555H14.9229V25.3594Z"/>
</mask>
<path d="M14.9229 25.3594H47.9121V4.18555H57.3066V56H47.9121V34.8262H14.9229V56H5.52832V4.18555H14.9229V25.3594Z" fill="#FF6F61"/>
<path d="M14.9229 25.3594H10.9229V29.3594H14.9229V25.3594ZM47.9121 25.3594V29.3594H51.9121V25.3594H47.9121ZM47.9121 4.18555V0.185547H43.9121V4.18555H47.9121ZM57.3066 4.18555H61.3066V0.185547H57.3066V4.18555ZM57.3066 56V60H61.3066V56H57.3066ZM47.9121 56H43.9121V60H47.9121V56ZM47.9121 34.8262H51.9121V30.8262H47.9121V34.8262ZM14.9229 34.8262V30.8262H10.9229V34.8262H14.9229ZM14.9229 56V60H18.9229V56H14.9229ZM5.52832 56H1.52832V60H5.52832V56ZM5.52832 4.18555V0.185547H1.52832V4.18555H5.52832ZM14.9229 4.18555H18.9229V0.185547H14.9229V4.18555ZM14.9229 29.3594H47.9121V21.3594H14.9229V29.3594ZM51.9121 25.3594V4.18555H43.9121V25.3594H51.9121ZM47.9121 8.18555H57.3066V0.185547H47.9121V8.18555ZM53.3066 4.18555V56H61.3066V4.18555H53.3066ZM57.3066 52H47.9121V60H57.3066V52ZM51.9121 56V34.8262H43.9121V56H51.9121ZM47.9121 30.8262H14.9229V38.8262H47.9121V30.8262ZM10.9229 34.8262V56H18.9229V34.8262H10.9229ZM14.9229 52H5.52832V60H14.9229V52ZM9.52832 56V4.18555H1.52832V56H9.52832ZM5.52832 8.18555H14.9229V0.185547H5.52832V8.18555ZM10.9229 4.18555V25.3594H18.9229V4.18555H10.9229Z" fill="#4B4B4B" mask="url(#path-1-outside-1_1_31)"/>
<rect x="105" y="20" width="20" height="20" fill="#FF6F61"/>
<rect x="85" y="40" width="20" height="20" fill="#61FFDA"/>
<rect x="85" width="20" height="20" fill="#FFC361"/>
<rect x="85" y="20" width="20" height="20" fill="black"/>
<rect width="20" height="20" transform="matrix(1 0 0 -1 65 40)" fill="#B17AFF"/>
</svg>
